PathFileType	4	(X/Y/Z)	/Users/niels/Desktop/University/Third Semester/Perception and Action/Exam/Gymnastics Motion Tracking/Code for Gym Tracking/Analyzed Data/Webcam_Backflip/id6_3_pure_Sports2D/id6_3_pure_Sports2D_px_person00.trc
DataRate	CameraRate	NumFrames	NumMarkers	Units	OrigDataRate	OrigDataStartFrame	OrigNumFrames
29.8125	29.8125	10	22	m	29.8125	0	160
Frame#	Time	Hip			RHip			RKnee			RAnkle			RBigToe			RSmallToe			RHeel			LHip			LKnee			LAnkle			LBigToe			LSmallToe			LHeel			Neck			Head			Nose			RShoulder			RElbow			RWrist			LShoulder			LElbow			LWrist		
		X1	Y1	Z1	X2	Y2	Z2	X3	Y3	Z3	X4	Y4	Z4	X5	Y5	Z5	X6	Y6	Z6	X7	Y7	Z7	X8	Y8	Z8	X9	Y9	Z9	X10	Y10	Z10	X11	Y11	Z11	X12	Y12	Z12	X13	Y13	Z13	X14	Y14	Z14	X15	Y15	Z15	X16	Y16	Z16	X17	Y17	Z17	X18	Y18	Z18	X19	Y19	Z19	X20	Y20	Z20	X21	Y21	Z21	X22	Y22	Z22
0	0.0	0.9479331327366236	-0.5803049937278821	0.0	0.9479292403289372	-0.5789687016784033	0.0	0.9626156901087964	-0.6789503441741795	0.0	0.9559422777238752	-0.7762670742870312	0.0	0.9852786738535564	-0.7935975789812029	0.0	0.9772801754825684	-0.7962610246778894	0.0	0.9479451972403188	-0.7896037836422467	0.0	0.9465952278655307	-0.5763047024783411	0.0	0.9599497741284123	-0.6776172716388008	0.0	0.9559395323162584	-0.7722743573176235	0.0	0.9852824449532376	-0.7935988517148052	0.0	0.9799534511628882	-0.7909336779262731	0.0	0.9479411363507043	-0.7842791609297225	0.0	0.9945997052933703	-0.4536838564753534	0.0	1.0172728773749455	-0.3870386937403296	0.0	1.0279347971535295	-0.4243535894231496	0.0	0.9932807642007028	-0.4643497698224097	0.0	1.0572531253797388	-0.4909882974099376	0.0	1.1199130615505677	-0.5016478181180264	0.0	0.9892655227063561	-0.46034265933027957	0.0	1.0572411636383703	-0.4856691796833664	0.0	1.1185335936614484	-0.4949945844153991	0.0
1	0.03354297693920335	0.9479754064782427	-0.5824627560858308	0.0	0.9482950735406239	-0.5813927961963072	0.0	0.9623457351263508	-0.680529250026256	0.0	0.9557252039077728	-0.7785656717782502	0.0	0.9872604433067325	-0.7957308588107768	0.0	0.9791671796722152	-0.7983521494046678	0.0	0.9480998524173652	-0.7924376761712916	0.0	0.9472983692645017	-0.5790002372796825	0.0	0.9599932208959174	-0.6793542013729693	0.0	0.9552202034549704	-0.7745394124004612	0.0	0.9854511709290553	-0.7952916515139661	0.0	0.9807695803198959	-0.7927491006495856	0.0	0.9471984066562796	-0.7874346186652338	0.0	0.9949407193494575	-0.45647108760700894	0.0	1.0180905366732418	-0.3905021248214614	0.0	1.0286139675827242	-0.4267672444847375	0.0	0.9936764620150962	-0.4681249457247915	0.0	1.0467257497528306	-0.5068535205099686	0.0	1.1011916089361033	-0.5331787326348296	0.0	0.9883169899471935	-0.46465399110326916	0.0	1.0447779454626942	-0.5027204473157754	0.0	1.0979465822268604	-0.5262796771530001	0.0
2	0.0670859538784067	0.9484890387137241	-0.5847662053455714	0.0	0.949081926813094	-0.5839304387966817	0.0	0.9623534774071175	-0.6823545875494819	0.0	0.9556516695133181	-0.7809868746684433	0.0	0.9889749124631334	-0.7980557784315756	0.0	0.9807714285377238	-0.8006905923365859	0.0	0.9483802244066897	-0.7954077190403762	0.0	0.948291998671904	-0.581814939390984	0.0	0.9602389702916899	-0.6814018881494919	0.0	0.9546701504832399	-0.7769261978084535	0.0	0.9857442893431376	-0.7971698680063088	0.0	0.9815089817213403	-0.7947323750833598	0.0	0.9465787870168765	-0.7906597101826681	0.0	0.9952190404619815	-0.4590575168738366	0.0	1.019200975517233	-0.3939076364264969	0.0	1.0293634481798504	-0.429207758355204	0.0	0.9940325135665207	-0.47165958235061006	0.0	1.0356702426207791	-0.5207364026778085	0.0	1.0805255541106678	-0.5608594371752887	0.0	0.9874124264387688	-0.4685883727920435	0.0	1.0315847002464524	-0.5173849045248107	0.0	1.075633659002264	-0.5532437562966657	0.0
3	0.10062893081761004	0.9497776557362554	-0.587186509986423	0.0	0.9505491320155067	-0.5865467794289593	0.0	0.9628166290558516	-0.6845306855353084	0.0	0.9557620298420955	-0.7834648448775673	0.0	0.9902530305082914	-0.8005711760454078	0.0	0.9819473897032068	-0.8033187039034684	0.0	0.9487587114841369	-0.7984122188095606	0.0	0.949814805781638	-0.5847430179422056	0.0	0.9608642876692142	-0.6838523885711303	0.0	0.9544119786726867	-0.7793670651352936	0.0	0.9863548305723973	-0.7992330234612938	0.0	0.9822248533316543	-0.7968476993057733	0.0	0.9461723905623415	-0.7937987148589644	0.0	0.9954458335968253	-0.46126344693914	0.0	1.0207363909616958	-0.39713232262493225	0.0	1.0302160754559808	-0.43162743623449257	0.0	0.9943138535649705	-0.47467486153626964	0.0	1.023685341473013	-0.5308553517617833	0.0	1.056634606184178	-0.5812828690592033	0.0	0.9866456135784852	-0.4718227352017013	0.0	1.0173111773468708	-0.5277992584631749	0.0	1.0506082712703144	-0.5725304321848522	0.0
4	0.1341719077568134	0.9518627589975557	-0.5894899111758567	0.0	0.9526775941966047	-0.5890661479079535	0.0	0.9637775386991699	-0.6869123758870543	0.0	0.9559717025232052	-0.7857585400727876	0.0	0.9909223416814106	-0.8030729931753704	0.0	0.9826092370840124	-0.8060194201136529	0.0	0.9490899420185714	-0.8011212909174832	0.0	0.9519232971941226	-0.5876054274688102	0.0	0.9619743737333795	-0.6864664673976077	0.0	0.9544643834567884	-0.7815870091199316	0.0	0.9873012623340284	-0.8012770351134153	0.0	0.9829388557918112	-0.7988432882462282	0.0	0.9460035785859056	-0.7964942800908529	0.0	0.9956759092119865	-0.46294056418172225	0.0	1.0226275858622584	-0.3999681119150528	0.0	1.031169401240543	-0.4338595971014021	0.0	0.9945093395302708	-0.47688440827084677	0.0	1.0106614809518069	-0.5360297743063266	0.0	1.0294508518828576	-0.5921348956132373	0.0	0.9860917686062407	-0.4740807041869896	0.0	1.0022765278411918	-0.5328897964092945	0.0	1.0231533867748819	-0.582294915306053	0.0
5	0.16771488469601675	0.9544826100091647	-0.5913199668795691	0.0	0.9551651613872566	-0.5912198293839894	0.0	0.9651749941837874	-0.6891160079339349	0.0	0.9561673913606669	-0.7875579543407373	0.0	0.9908124732067732	-0.8052187938607646	0.0	0.9826709585026969	-0.808376036910046	0.0	0.9492574396696224	-0.803117467881693	0.0	0.9544173287345261	-0.5900452524148179	0.0	0.9635380215423767	-0.6887603036146118	0.0	0.954742353436506	-0.7832062469955793	0.0	0.9882742808752455	-0.8029616177083704	0.0	0.9834780170103284	-0.8003654209423228	0.0	0.9460110903118143	-0.7983400221563854	0.0	0.9959121065949833	-0.4639432336515346	0.0	1.0247132807592683	-0.40210926045816514	0.0	1.0321993088352603	-0.4356102838862892	0.0	0.9946099355993436	-0.4779885441113885	0.0	0.9968740731663303	-0.5358395409345154	0.0	1.0002052470854224	-0.5924345644226213	0.0	0.9857566763560931	-0.47510932341732115	0.0	0.9874967104734154	-0.5324440588013126	0.0	0.9947921607489686	-0.582279733128342	0.0
6	0.20125786163522008	0.9572132118064469	-0.5923356376409281	0.0	0.9575635244802697	-0.5926751818622952	0.0	0.9668932555040799	-0.6906946568187624	0.0	0.9563068391879304	-0.7885802616915556	0.0	0.9899778444728156	-0.8066129202179579	0.0	0.9821943290555762	-0.8099032822022884	0.0	0.9492327110794169	-0.8040378886958737	0.0	0.9569369784227135	-0.5916282798517861	0.0	0.9653966841528244	-0.6902492616172249	0.0	0.9551490951430158	-0.7839103802940762	0.0	0.9889210787969323	-0.8038843779947606	0.0	0.983658121044579	-0.8010725549580117	0.0	0.9460948530498208	-0.7990287322319644	0.0	0.9960785341335294	-0.4641298637566559	0.0	1.0268750618677747	-0.40323049185849863	0.0	1.033278583240157	-0.4365275849427319	0.0	0.9945835903128285	-0.47770725054001445	0.0	0.9829714973463979	-0.5305706020765245	0.0	0.9710448437516092	-0.5825915568877574	0.0	0.98556257704341	-0.4747662451214338	0.0	0.9741897687701955	-0.5271387254808936	0.0	0.9676022629271256	-0.5737132134279833	0.0
7	0.23480083857442344	0.9596267550416825	-0.5923235248652724	0.0	0.9594558401658675	-0.5930855873843159	0.0	0.9688044098904158	-0.691274445693699	0.0	0.9564127662074514	-0.7886025405001694	0.0	0.9888200338936953	-0.8069333759111245	0.0	0.981488531155404	-0.8102086399096137	0.0	0.9490617810522781	-0.8036571452129133	0.0	0.9591256746724743	-0.5919776278066532	0.0	0.9673539539488338	-0.690588493163533	0.0	0.9556541414947919	-0.7835539090691933	0.0	0.9891227556379882	-0.8036921088797259	0.0	0.9835265753191113	-0.800697901078237	0.0	0.946196474851171	-0.798393541718945	0.0	0.9960625939599479	-0.46338959589910145	0.0	1.029108189630325	-0.40309856454367143	0.0	1.034387485866037	-0.43632228951720387	0.0	0.9943879119798834	-0.47584808637800907	0.0	0.9698196864694405	-0.5209977280305251	0.0	0.9443952683164989	-0.5643236432198054	0.0	0.9853509781681605	-0.47307054987158864	0.0	0.9632047310070925	-0.5182580923336284	0.0	0.943604035449936	-0.5589277219293073	0.0
8	0.2683438155136268	0.961406234092996	-0.5912095869349843	0.0	0.9605878717940078	-0.5921905415832889	0.0	0.9707837709037139	-0.6905901136754384	0.0	0.9565293592815985	-0.787471059864177	0.0	0.9879484854954246	-0.8060472737414853	0.0	0.9809974008964925	-0.8091526224869918	0.0	0.9488809253471393	-0.8019298136346339	0.0	0.9607167694497211	-0.5908411900696037	0.0	0.9692125460067772	-0.6895744945430932	0.0	0.9562595538733308	-0.7821355495265916	0.0	0.9889766913632038	-0.8022442272382945	0.0	0.9833418358039193	-0.7991312420621832	0.0	0.946300973980521	-0.7964154348556621	0.0	0.9957809344863016	-0.461685148531676	0.0	1.0314557462393823	-0.4016446142647526	0.0	1.0355036809693272	-0.4348924545616311	0.0	0.994016840915838	-0.4724040760741701	0.0	0.9582782188317898	-0.5081579085868185	0.0	0.9222800459655388	-0.5402671987993144	0.0	0.9850051979101242	-0.4701511318711563	0.0	0.9549983463478833	-0.5072790472378984	0.0	0.9245651377370057	-0.5408014700558152	0.0
9	0.3018867924528301	0.9623985927937033	-0.5889691487375484	0.0	0.960917498359134	-0.5898670399698349	0.0	0.9727319557460776	-0.688520067543499	0.0	0.9567140843875938	-0.7851362165677033	0.0	0.9879872217405893	-0.8039985623648431	0.0	0.981183872851001	-0.8068718136526714	0.0	0.9488733818085193	-0.7990000404989599	0.0	0.9615280056997538	-0.5881121185877732	0.0	0.9707870653634176	-0.6871436709562123	0.0	0.9569202855837782	-0.7797344246230068	0.0	0.9887734922389626	-0.7996591811336307	0.0	0.9834689131781751	-0.7964616671486241	0.0	0.9463546222926149	-0.7932761079334943	0.0	0.9952695476825996	-0.45906901312695264	0.0	1.0338724268058594	-0.3990164524277602	0.0	1.0366243332638183	-0.43236796527558935	0.0	0.993597001166431	-0.4676403282931801	0.0	0.9490111547314504	-0.49326295684334776	0.0	0.9057858471690193	-0.5133540951400675	0.0	0.9845916333584095	-0.4661933861060651	0.0	0.9497522015030216	-0.49567402139791933	0.0	0.9115409164569798	-0.5222057654767974	0.0
